# xmcd CD database file
#
# Track frame offsets:
#	150
#	79031
#	99152
#	162669
#	211771
#	238808
#	255362
#	310653
#
# Disc length: 4693 seconds
#
# Revision: 0
# Processed by: cddbd v1.5.1PL2 Copyright (c) Steve Scherf et al.
# Submitted via: CDex 1.51
#
DISCID=59125308
DTITLE=Miles Davis - The Complete Bitches Brew Sessions (August 1969-February 1970) Disc 2
DYEAR=1998
DGENRE=Jazz
TTITLE0=Spanish Key
TTITLE1=John McLaughlin
TTITLE2=Miles Runs The Voodoo Down
TTITLE3=Sanctuary
TTITLE4=Trevere (unreleased)
TTITLE5=The Big Green Serpent
TTITLE6=The Little Blue Frog (unreleas
TTITLE7=The Little Blue Frog (mst)
EXTD=YEAR: 1998
EXTT0=
EXTT1=
EXTT2=
EXTT3=
EXTT4=
EXTT5=
EXTT6=
EXTT7=
PLAYORDER=
